<?xml version="1.0" encoding="UTF-8" standalone="no"?>
<svg
   xmlns:dc="http://purl.org/dc/elements/1.1/"
   xmlns:cc="http://creativecommons.org/ns#"
   xmlns:rdf="http://www.w3.org/1999/02/22-rdf-syntax-ns#"
   xmlns:svg="http://www.w3.org/2000/svg"
   xmlns="http://www.w3.org/2000/svg"
   xmlns:sodipodi="http://sodipodi.sourceforge.net/DTD/sodipodi-0.dtd"
   xmlns:inkscape="http://www.inkscape.org/namespaces/inkscape"
   viewBox="0.0 0.0 348.0 348.0"
   fill="none"
   version="1.1"
   id="svg3729"
   sodipodi:docname="Module Name.svg"
   inkscape:version="0.92.3 (2405546, 2018-03-11)">
  <metadata
     id="metadata3735">
    <rdf:RDF>
      <cc:Work
         rdf:about="">
        <dc:format>image/svg+xml</dc:format>
        <dc:type
           rdf:resource="http://purl.org/dc/dcmitype/StillImage" />
      </cc:Work>
    </rdf:RDF>
  </metadata>
  <defs
     id="defs3733" />
  <sodipodi:namedview
     pagecolor="#ffffff"
     bordercolor="#666666"
     borderopacity="1"
     objecttolerance="10"
     gridtolerance="10"
     guidetolerance="10"
     inkscape:pageopacity="0"
     inkscape:pageshadow="2"
     inkscape:window-width="1600"
     inkscape:window-height="845"
     id="namedview3731"
     showgrid="false"
     inkscape:zoom="1.9425287"
     inkscape:cx="117.88955"
     inkscape:cy="178.18484"
     inkscape:window-x="-8"
     inkscape:window-y="-8"
     inkscape:window-maximized="1"
     inkscape:current-layer="svg3729" />
  <path
     d="M5.079 5.776h336.913v337.67H5.08z"
     stroke-width="2"
     stroke="#000"
     id="path3725" />
  <path
     d="M282.734 40.554c0-8.376 6.966-15.165 15.56-15.165 4.126 0 8.084 1.597 11.001 4.441 2.918 2.844 4.558 6.702 4.558 10.724 0 8.376-6.966 15.165-15.56 15.165-8.593 0-15.559-6.79-15.559-15.165z"
     stroke-width="2"
     stroke="#000"
     id="path3727" />
  <path
     id="path3739"
     d="m 116.2813,98.927755 c -3.32033,-0.436256 -6.64542,-0.327364 -9.95604,0.100511 -0.72515,0.149933 -1.45848,0.264684 -2.17546,0.449799 -1.47755,0.381485 -2.9701,0.925735 -4.353916,1.566425 -0.712212,0.32974 -2.758969,1.49442 -2.091015,1.08234 1.377244,-0.84968 2.753921,-1.71567 4.221801,-2.396907 0.72876,-0.338213 -1.32623,0.907227 -1.989339,1.360837 -2.615331,1.94444 -4.888988,4.29018 -6.611705,7.0644 -1.08954,1.75456 -1.321365,2.43281 -2.169459,4.31071 -1.429207,3.79679 -2.188524,7.85469 -2.077732,11.91981 0.02159,0.79207 0.116512,1.58045 0.174768,2.37067 0.502578,4.54562 2.328596,8.67269 4.634527,12.56277 2.347791,3.64301 5.308041,6.8215 8.45992,9.77367 3.37128,2.92404 6.84522,5.73848 10.42767,8.40037 3.85551,2.85769 7.93426,5.39206 11.93248,8.04091 4.69852,3.10793 9.51241,6.02448 14.11588,9.27464 4.49538,3.18283 8.67502,6.8176 12.24444,11.02376 0.75783,0.89302 1.46072,1.83124 2.19108,2.74685 3.61274,4.7744 6.39885,10.13924 8.29031,15.8187 0.39879,1.19747 0.72321,2.41843 1.08482,3.62764 1.99965,9.18333 2.37148,18.61261 2.49882,27.97867 -0.14528,9.13683 -0.5065,18.26798 -0.68312,27.40439 0.0399,5.05239 0.10981,10.16721 1.3292,15.10273 0.7049,2.85309 1.03745,3.34675 2.16843,6.00644 2.24626,4.34228 5.50844,8.2388 9.95383,10.46835 1.0306,0.51688 2.1402,0.85833 3.2103,1.2875 6.17867,1.94991 12.706,2.37658 19.10478,1.39303 1.25788,-0.19335 2.49697,-0.49369 3.74545,-0.74054 3.60287,-0.82849 7.06616,-2.11703 10.38954,-3.72565 1.07825,-0.52191 1.98953,-1.68193 3.18725,-1.66024 1.13738,0.0206 -3.15812,2.78746 -2.97954,1.664 0.19073,-1.19985 2.02378,-1.34475 3.03567,-2.01713 5.08123,-3.67026 9.59551,-8.09147 13.52895,-12.96595 0.79653,-0.98709 1.54431,-2.01254 2.31646,-3.0188 4.38379,-5.8323 7.62989,-12.35745 10.30916,-19.11293 1.72018,-4.94836 3.1218,-10.13185 3.22015,-15.40646 0.0175,-0.93892 -0.0564,-1.87732 -0.0845,-2.81599 -0.40491,-5.2461 -2.80496,-9.83236 -5.57891,-14.18239 -1.64142,-2.50751 -3.47177,-4.89539 -5.03493,-7.45453 -0.89003,-1.45713 -1.15641,-2.04555 -1.92694,-3.55055 -1.4194,-3.20574 -2.12703,-6.73414 -2.05143,-10.24456 0.0168,-0.78147 0.11145,-1.55933 0.16718,-2.339 0.45828,-3.26574 1.28833,-6.49226 2.58936,-9.52797 0.84798,-1.9786 1.18913,-2.4641 2.2417,-4.32615 2.11158,-3.45266 4.93799,-6.32503 8.29512,-8.55751 2.61152,-0.42178 7.10936,-5.54377 10.99286,-5.03149 0.71484,0.0943 0.96922,0.31425 1.56437,0.65702 1.42596,1.45836 1.75697,3.40346 1.99526,5.346 0.25618,1.84847 0.42329,3.70591 0.68299,5.55377 0.25826,1.96852 0.98327,3.76702 2.02014,5.44285 1.08522,1.61568 2.65985,2.51013 4.45126,3.13514 2.08996,0.69885 4.15072,0.33981 6.22385,-0.19895 0.40376,-0.14792 0.81369,-0.27999 1.21129,-0.44376 0.43221,-0.17801 0.85912,-0.37009 1.27634,-0.58085 0.43532,-0.2199 1.70189,-0.9535 1.27925,-0.71012 -9.44876,5.44104 -4.6459,2.69322 -2.25589,0.91071 3.1389,-2.44869 5.65688,-5.52649 7.9817,-8.72905 2.3974,-3.23441 4.20776,-6.79297 5.65769,-10.53322 1.48901,-3.81936 2.23509,-7.83888 2.83425,-11.87525 0.60623,-3.61413 0.54647,-7.12369 -0.057,-10.72203 -0.5869,-3.27439 -1.93325,-6.31259 -3.42296,-9.26064 -1.44088,-2.80729 -3.60691,-5.09953 -5.99655,-7.11781 -2.26477,-1.90158 -4.85302,-3.27487 -7.61359,-4.29367 -2.01006,-0.62537 -4.10228,-0.99548 -6.19075,-0.63921 -0.72834,0.23922 -0.82927,0.23299 -1.49284,0.60281 -0.22231,0.1239 -0.86726,0.53253 -0.64484,0.40882 9.31125,-5.17869 6.83009,-4.34458 4.70445,-2.23797 -1.27949,1.33447 -1.95351,3.08429 -2.92947,4.63094 -0.96815,1.49368 -2.022,2.93035 -3.22501,4.24317 -2.51511,2.59872 -5.7872,4.61358 -9.20857,5.74811 -0.81498,0.46642 -1.7247,0.70671 -2.56253,1.12907 -0.63346,0.25762 -0.33835,0.10006 -0.88853,0.46662 0,0 5.94664,-4.79918 5.94664,-4.79918 v 0 c 0.60812,-0.27717 0.30019,-0.13795 0.92384,-0.41752 0.86627,-0.35617 1.73224,-0.70929 2.57957,-1.10838 2.5155,-1.27454 0.83112,-0.43191 -5.63465,3.31468 -0.15164,0.0879 0.29732,-0.18567 0.44713,-0.27661 0.52149,-0.31655 0.99789,-0.65577 1.37885,-1.14602 1.29385,-1.20596 2.33022,-2.65656 3.31633,-4.11822 0.38388,-0.55933 0.72493,-1.02466 1.04837,-1.62357 0.57117,-1.05765 0.95557,-2.23528 1.79934,-3.12659 2.50877,-2.70027 3.48778,-2.64845 8.21545,-5.44924 0.70324,-0.41661 1.50052,-0.6378 2.30099,-0.765 2.16571,-0.15093 4.30846,0.24422 6.34948,0.97691 2.78805,1.12647 5.4083,2.57912 7.71366,4.53082 2.43788,2.11031 4.66932,4.47393 6.13659,7.37942 1.50921,3.01862 2.91654,6.11056 3.52714,9.45584 0.64093,3.70727 0.72471,7.22397 0.115,10.95512 -0.59931,4.07678 -1.30182,8.14742 -2.76582,12.0197 -1.41308,3.80053 -3.17781,7.42783 -5.58736,10.71075 -2.29,3.24652 -4.76997,6.37567 -7.85379,8.91378 -4.33734,3.40448 -9.14792,6.40163 -14.39423,8.13888 -2.1964,0.47421 -4.36725,0.68098 -6.52022,-0.13797 -1.90116,-0.75995 -3.55238,-1.82092 -4.70653,-3.56429 -1.08069,-1.76435 -1.87734,-3.64422 -2.18371,-5.70716 -0.26673,-1.85511 -0.42832,-3.71917 -0.69095,-5.57516 -0.1674,-1.66605 -0.34368,-3.48331 -1.64686,-4.68227 -0.55965,-0.24141 -0.65485,-0.34629 -1.30688,-0.34179 -2.6827,0.0185 -8.06753,3.95563 2.0522,-2.1569 -3.45502,2.07833 -6.34332,4.88647 -8.54702,8.27628 -1.0967,1.85372 -1.40358,2.25599 -2.29353,4.23137 -1.33337,2.95961 -2.17698,6.11666 -2.66344,9.32066 -0.0652,0.75599 -0.17074,1.50958 -0.19574,2.26796 -0.11207,3.39931 0.60641,6.817 1.94027,9.93236 1.94474,3.87346 4.39312,7.42391 6.8592,10.98171 2.8322,4.46559 5.24113,9.19437 5.70545,14.55667 0.0339,0.96179 0.11493,1.92307 0.10163,2.88536 -0.074,5.35098 -1.4903,10.61122 -3.19409,15.64334 -2.6717,6.81695 -5.91808,13.40654 -10.28561,19.31683 -0.7662,1.01643 -1.50749,2.05212 -2.29861,3.04929 -3.9029,4.91944 -8.39315,9.39035 -13.43325,13.14127 -7.97581,5.43143 -16.44105,10.44283 -25.92716,12.61497 -1.25749,0.22869 -2.50642,0.51087 -3.77247,0.68605 -6.4999,0.89937 -13.10156,0.36044 -19.35198,-1.64164 -1.11605,-0.45105 -2.27437,-0.80909 -3.34815,-1.35317 -0.92018,-0.46625 -1.77388,-1.05893 -2.60857,-1.66508 -3.28515,-2.38565 -5.77507,-5.55567 -7.55531,-9.18757 -1.13204,-2.70027 -1.49597,-3.27189 -2.19393,-6.1637 -1.20756,-5.00319 -1.25568,-10.18156 -1.28224,-15.29641 0.22018,-9.14141 0.59992,-18.2779 0.7671,-27.42039 -0.10466,-9.2828 -0.42638,-18.65191 -2.55563,-27.7271 -0.35899,-1.19374 -0.68141,-2.39909 -1.07699,-3.58121 -1.87517,-5.60368 -4.62738,-10.89804 -8.20105,-15.60595 -0.72373,-0.90232 -1.41934,-1.82793 -2.17119,-2.70696 -3.55735,-4.15909 -7.7539,-7.70709 -12.2184,-10.85241 -4.62483,-3.23258 -9.47502,-6.10409 -14.18763,-9.20411 -4.0183,-2.64671 -8.10395,-5.19874 -11.97384,-8.06318 -3.60231,-2.68428 -7.113753,-5.49709 -10.489303,-8.4621 -3.186173,-3.01568 -6.200506,-6.23641 -8.567552,-9.95109 -2.351056,-3.99226 -4.215701,-8.22331 -4.763372,-12.87391 -0.06669,-0.81085 -0.170137,-1.61952 -0.200071,-2.43256 -0.152469,-4.14136 0.577047,-8.28581 1.949185,-12.18421 0.323175,-0.75344 0.61536,-1.52094 0.969525,-2.26032 1.788673,-3.73416 4.363922,-6.95539 7.651945,-9.47978 4.306225,-3.10299 2.31647,-1.76951 10.311353,-6.23214 2.71887,-1.517632 5.73605,-2.441979 8.80111,-2.918756 3.41762,-0.386099 6.84163,-0.440577 10.27007,-0.114615 0,0 -6.22249,4.416536 -6.22249,4.416536 z"
     inkscape:connector-curvature="0" />
  <path
     style="stroke-width:0.51479292"
     d="M 6.1775148,174.61775 V 6.7952663 H 173.48521 340.7929 V 174.61775 342.44024 H 173.48521 6.1775148 Z M 305.68148,55.255712 c 3.36632,-1.741866 6.09982,-4.484539 7.68337,-7.70916 1.20273,-2.449163 1.43101,-3.570969 1.43101,-7.032351 0,-3.470638 -0.2272,-4.581002 -1.44459,-7.060096 -5.92438,-12.064397 -23.3692,-12.256429 -29.97513,-0.329965 -1.37673,2.485582 -1.52666,3.212929 -1.52334,7.390061 0.004,5.259868 0.9396,7.706222 4.29793,11.240366 3.53487,3.719913 6.98985,4.999917 12.94394,4.79548 3.30218,-0.113382 4.91822,-0.43094 6.58681,-1.294335 z"
     id="path3799"
     inkscape:connector-curvature="0" />
  <circle
     style="fill:#ffffff;stroke:#000000;stroke-width:3;stroke-miterlimit:4;stroke-dasharray:none;stroke-opacity:1"
     id="path4982"
     cx="58.68639"
     cy="288.79883"
     r="33.46154" />
  <circle
     style="fill:#ffffff;stroke:#000000;stroke-width:3;stroke-miterlimit:4;stroke-dasharray:none;stroke-opacity:1"
     id="path4982-8"
     cx="135.90533"
     cy="289.8284"
     r="33.46154" />
  <circle
     style="fill:#ffffff;stroke:#000000;stroke-width:3;stroke-miterlimit:4;stroke-dasharray:none;stroke-opacity:1"
     id="path4982-5"
     cx="212.60947"
     cy="289.8284"
     r="33.46154" />
  <circle
     style="fill:#ffffff;stroke:#000000;stroke-width:3;stroke-miterlimit:4;stroke-dasharray:none;stroke-opacity:1"
     id="path4982-8-9"
     cx="289.82843"
     cy="290.85797"
     r="33.46154" />
  <rect
     style="fill:#ffffff;stroke:#000000;stroke-width:3;stroke-miterlimit:4;stroke-dasharray:none;stroke-opacity:1"
     id="rect877"
     width="277.98816"
     height="154.95267"
     x="32.946747"
     y="74.644966" />
  <rect
     style="fill:#ffffff;stroke:#000000;stroke-width:3;stroke-miterlimit:4;stroke-dasharray:none;stroke-opacity:1"
     id="rect881"
     width="16.473373"
     height="16.473373"
     x="31.402367"
     y="36.035496" />
  <rect
     style="fill:#ffffff;stroke:#000000;stroke-width:3;stroke-miterlimit:4;stroke-dasharray:none;stroke-opacity:1"
     id="rect881-2"
     width="16.473373"
     height="16.473373"
     x="69.49704"
     y="36.0355" />
  <rect
     style="fill:#ffffff;stroke:#000000;stroke-width:3;stroke-miterlimit:4;stroke-dasharray:none;stroke-opacity:1"
     id="rect881-9"
     width="16.473373"
     height="16.473373"
     x="109.13609"
     y="36.035496" />
  <rect
     style="fill:#ffffff;stroke:#000000;stroke-width:3;stroke-miterlimit:4;stroke-dasharray:none;stroke-opacity:1"
     id="rect881-7"
     width="16.473373"
     height="16.473373"
     x="149.80475"
     y="36.0355" />
  <rect
     style="fill:#ffffff;stroke:#000000;stroke-width:3;stroke-miterlimit:4;stroke-dasharray:none;stroke-opacity:1"
     id="rect881-1"
     width="16.473373"
     height="16.473373"
     x="189.95857"
     y="35.520702" />
  <text
     xml:space="preserve"
     style="font-style:normal;font-weight:normal;font-size:40px;line-height:1.25;font-family:sans-serif;letter-spacing:0px;word-spacing:0px;fill:#000000;fill-opacity:1;stroke:none"
     x="89.573975"
     y="163.70415"
     id="text920"><tspan
       sodipodi:role="line"
       x="89.573975"
       y="163.70415"
       id="tspan922">[ TEXT ]</tspan></text>
  <text
     xml:space="preserve"
     style="font-style:normal;font-weight:normal;font-size:40px;line-height:1.25;font-family:sans-serif;letter-spacing:0px;word-spacing:0px;fill:#000000;fill-opacity:1;stroke:none"
     x="44.78698"
     y="304.24261"
     id="text928"><tspan
       sodipodi:role="line"
       id="tspan926"
       x="44.78698"
       y="304.24261">X</tspan></text>
  <text
     xml:space="preserve"
     style="font-style:normal;font-weight:normal;font-size:40px;line-height:1.25;font-family:sans-serif;letter-spacing:0px;word-spacing:0px;fill:#000000;fill-opacity:1;stroke:none"
     x="122.19439"
     y="305.91379"
     id="text928-3"><tspan
       sodipodi:role="line"
       id="tspan926-6"
       x="122.19439"
       y="305.91379">X</tspan></text>
  <text
     xml:space="preserve"
     style="font-style:normal;font-weight:normal;font-size:40px;line-height:1.25;font-family:sans-serif;letter-spacing:0px;word-spacing:0px;fill:#000000;fill-opacity:1;stroke:none"
     x="199.92812"
     y="306.94339"
     id="text928-4"><tspan
       sodipodi:role="line"
       id="tspan926-5"
       x="199.92812"
       y="306.94339">X</tspan></text>
  <text
     xml:space="preserve"
     style="font-style:normal;font-weight:normal;font-size:40px;line-height:1.25;font-family:sans-serif;letter-spacing:0px;word-spacing:0px;fill:#000000;fill-opacity:1;stroke:none"
     x="277.14706"
     y="306.42859"
     id="text928-5"
     inkscape:transform-center-x="62.289942"
     inkscape:transform-center-y="5.662722"><tspan
       sodipodi:role="line"
       id="tspan926-1"
       x="277.14706"
       y="306.42859">X</tspan></text>
</svg>
